<svg width="402" height="65" viewBox="0 0 402 65" fill="none" xmlns="http://www.w3.org/2000/svg">
<path d="M112.11 36.07H98.43V52H89.49V12.4H98.43V28.24H112.11V12.4H121.02V52H112.11V36.07ZM136.48 38.77C136.48 40.73 136.85 42.3 137.59 43.48C138.33 44.64 139.57 45.22 141.31 45.22C143.09 45.22 144.34 44.64 145.06 43.48C145.8 42.3 146.17 40.73 146.17 38.77V27.37H155.17V39.73C155.17 42.37 154.62 44.67 153.52 46.63C152.44 48.57 150.87 50.07 148.81 51.13C146.75 52.19 144.25 52.72 141.31 52.72C138.39 52.72 135.9 52.19 133.84 51.13C131.78 50.07 130.21 48.57 129.13 46.63C128.05 44.67 127.51 42.37 127.51 39.73V27.37H136.48V38.77ZM160.561 52V10.72H169.681V30.97C169.861 30.41 170.321 29.8 171.061 29.14C171.821 28.46 172.811 27.88 174.031 27.4C175.271 26.9 176.671 26.65 178.231 26.65C180.631 26.65 182.711 27.24 184.471 28.42C186.231 29.6 187.591 31.18 188.551 33.16C189.511 35.12 189.991 37.3 189.991 39.7C189.991 42.1 189.511 44.29 188.551 46.27C187.591 48.23 186.231 49.8 184.471 50.98C182.711 52.14 180.631 52.72 178.231 52.72C176.911 52.72 175.661 52.48 174.481 52C173.321 51.54 172.311 50.95 171.451 50.23C170.611 49.49 169.991 48.75 169.591 48.01V52H160.561ZM181.051 39.7C181.051 38.58 180.801 37.58 180.301 36.7C179.821 35.8 179.151 35.1 178.291 34.6C177.451 34.08 176.501 33.82 175.441 33.82C174.341 33.82 173.351 34.08 172.471 34.6C171.611 35.1 170.931 35.8 170.431 36.7C169.931 37.58 169.681 38.58 169.681 39.7C169.681 40.82 169.931 41.83 170.431 42.73C170.931 43.61 171.611 44.3 172.471 44.8C173.351 45.3 174.341 45.55 175.441 45.55C176.501 45.55 177.451 45.3 178.291 44.8C179.151 44.3 179.821 43.61 180.301 42.73C180.801 41.83 181.051 40.82 181.051 39.7Z" fill="black"/>
<path d="M221.53 47.65C223.99 47.65 226.12 47.31 227.92 46.63C229.74 45.95 231.03 45.29 231.79 44.65L234.04 49.06C233.14 49.86 231.57 50.67 229.33 51.49C227.11 52.31 224.44 52.72 221.32 52.72C218.4 52.72 215.69 52.2 213.19 51.16C210.69 50.12 208.5 48.67 206.62 46.81C204.76 44.95 203.3 42.78 202.24 40.3C201.2 37.82 200.68 35.14 200.68 32.26C200.68 29.38 201.2 26.69 202.24 24.19C203.28 21.69 204.73 19.51 206.59 17.65C208.47 15.77 210.66 14.31 213.16 13.27C215.68 12.21 218.4 11.68 221.32 11.68C224.44 11.68 227.11 12.09 229.33 12.91C231.57 13.73 233.14 14.54 234.04 15.34L231.79 19.75C231.03 19.09 229.74 18.43 227.92 17.77C226.12 17.09 223.99 16.75 221.53 16.75C219.29 16.75 217.24 17.13 215.38 17.89C213.52 18.65 211.9 19.73 210.52 21.13C209.16 22.51 208.1 24.14 207.34 26.02C206.6 27.9 206.23 29.95 206.23 32.17C206.23 34.41 206.6 36.48 207.34 38.38C208.1 40.26 209.16 41.9 210.52 43.3C211.9 44.68 213.52 45.75 215.38 46.51C217.24 47.27 219.29 47.65 221.53 47.65ZM251.46 52.72C248.92 52.72 246.66 52.15 244.68 51.01C242.72 49.87 241.18 48.33 240.06 46.39C238.94 44.43 238.38 42.22 238.38 39.76C238.38 37.3 238.94 35.08 240.06 33.1C241.18 31.12 242.72 29.55 244.68 28.39C246.66 27.23 248.92 26.65 251.46 26.65C253.98 26.65 256.21 27.23 258.15 28.39C260.11 29.55 261.64 31.12 262.74 33.1C263.84 35.08 264.39 37.3 264.39 39.76C264.39 42.22 263.84 44.43 262.74 46.39C261.64 48.33 260.11 49.87 258.15 51.01C256.21 52.15 253.98 52.72 251.46 52.72ZM251.46 48.25C253.06 48.25 254.45 47.88 255.63 47.14C256.83 46.4 257.76 45.39 258.42 44.11C259.08 42.81 259.41 41.35 259.41 39.73C259.41 38.11 259.08 36.65 258.42 35.35C257.76 34.05 256.83 33.02 255.63 32.26C254.45 31.5 253.06 31.12 251.46 31.12C249.84 31.12 248.43 31.5 247.23 32.26C246.03 33.02 245.09 34.05 244.41 35.35C243.75 36.65 243.42 38.11 243.42 39.73C243.42 41.35 243.75 42.81 244.41 44.11C245.09 45.39 246.03 46.4 247.23 47.14C248.43 47.88 249.84 48.25 251.46 48.25ZM283.947 26.65C285.567 26.65 287.137 26.99 288.657 27.67C290.197 28.35 291.457 29.43 292.437 30.91C293.437 32.37 293.937 34.28 293.937 36.64V52H288.657V37.66C288.657 35.22 288.087 33.45 286.947 32.35C285.807 31.23 284.337 30.67 282.537 30.67C281.357 30.67 280.217 31.01 279.117 31.69C278.037 32.35 277.147 33.27 276.447 34.45C275.747 35.61 275.397 36.93 275.397 38.41V52H270.177V27.37H275.397V31.75C275.577 31.07 276.067 30.33 276.867 29.53C277.667 28.73 278.687 28.05 279.927 27.49C281.167 26.93 282.507 26.65 283.947 26.65ZM314.533 26.65C316.153 26.65 317.723 26.99 319.243 27.67C320.783 28.35 322.043 29.43 323.023 30.91C324.023 32.37 324.523 34.28 324.523 36.64V52H319.243V37.66C319.243 35.22 318.673 33.45 317.533 32.35C316.393 31.23 314.923 30.67 313.123 30.67C311.943 30.67 310.803 31.01 309.703 31.69C308.623 32.35 307.733 33.27 307.033 34.45C306.333 35.61 305.983 36.93 305.983 38.41V52H300.763V27.37H305.983V31.75C306.163 31.07 306.653 30.33 307.453 29.53C308.253 28.73 309.273 28.05 310.513 27.49C311.753 26.93 313.093 26.65 314.533 26.65ZM334.619 40.75C334.639 42.23 334.959 43.58 335.579 44.8C336.199 46.02 337.119 46.99 338.339 47.71C339.579 48.43 341.099 48.79 342.899 48.79C344.419 48.79 345.709 48.57 346.769 48.13C347.849 47.67 348.729 47.13 349.409 46.51C350.089 45.87 350.579 45.3 350.879 44.8L353.429 47.95C352.769 48.91 351.959 49.75 350.999 50.47C350.059 51.19 348.909 51.74 347.549 52.12C346.189 52.52 344.529 52.72 342.569 52.72C339.929 52.72 337.639 52.16 335.699 51.04C333.779 49.9 332.299 48.33 331.259 46.33C330.219 44.31 329.699 42 329.699 39.4C329.699 37 330.189 34.84 331.169 32.92C332.149 30.98 333.569 29.45 335.429 28.33C337.309 27.21 339.569 26.65 342.209 26.65C344.629 26.65 346.729 27.16 348.509 28.18C350.309 29.18 351.699 30.6 352.679 32.44C353.679 34.28 354.179 36.48 354.179 39.04C354.179 39.2 354.169 39.49 354.149 39.91C354.129 40.31 354.109 40.59 354.089 40.75H334.619ZM349.199 36.82C349.179 36 348.939 35.1 348.479 34.12C348.039 33.14 347.319 32.3 346.319 31.6C345.319 30.9 343.969 30.55 342.269 30.55C340.509 30.55 339.089 30.89 338.009 31.57C336.949 32.25 336.169 33.08 335.669 34.06C335.169 35.02 334.879 35.94 334.799 36.82H349.199ZM371.553 48.4C373.113 48.4 374.373 48.15 375.333 47.65C376.293 47.15 376.893 46.79 377.133 46.57L379.683 50.32C379.483 50.5 379.003 50.79 378.243 51.19C377.503 51.57 376.543 51.92 375.363 52.24C374.203 52.56 372.883 52.72 371.403 52.72C369.143 52.72 367.043 52.22 365.103 51.22C363.163 50.2 361.593 48.72 360.393 46.78C359.213 44.84 358.623 42.47 358.623 39.67C358.623 36.85 359.213 34.48 360.393 32.56C361.593 30.62 363.163 29.15 365.103 28.15C367.043 27.15 369.143 26.65 371.403 26.65C372.863 26.65 374.163 26.83 375.303 27.19C376.443 27.53 377.383 27.91 378.123 28.33C378.863 28.75 379.353 29.07 379.593 29.29L377.013 33.04C376.853 32.88 376.543 32.64 376.083 32.32C375.643 31.98 375.043 31.67 374.283 31.39C373.523 31.11 372.613 30.97 371.553 30.97C370.273 30.97 369.023 31.32 367.803 32.02C366.603 32.7 365.613 33.69 364.833 34.99C364.053 36.29 363.663 37.85 363.663 39.67C363.663 41.49 364.053 43.06 364.833 44.38C365.613 45.68 366.603 46.68 367.803 47.38C369.023 48.06 370.273 48.4 371.553 48.4ZM382.511 27.37H387.341V17.26H392.531V27.37H398.861V31.84H392.531V44.02C392.531 45.46 392.781 46.52 393.281 47.2C393.801 47.88 394.491 48.22 395.351 48.22C396.111 48.22 396.701 48.08 397.121 47.8C397.541 47.52 397.791 47.33 397.871 47.23L399.941 51.07C399.821 51.17 399.501 51.36 398.981 51.64C398.461 51.92 397.791 52.17 396.971 52.39C396.151 52.61 395.191 52.72 394.091 52.72C392.171 52.72 390.561 52.14 389.261 50.98C387.981 49.8 387.341 47.94 387.341 45.4V31.84H382.511V27.37Z" fill="black"/>
<g clip-path="url(#clip0_418_5601)">
<path d="M9.03004 46.8686C11.4503 48.6214 15.3743 48.6214 17.7947 46.8686C20.2148 45.1158 20.2148 42.274 17.7947 40.5211C15.3743 38.7683 11.4503 38.7683 9.03004 40.5211C6.60978 42.274 6.60978 45.1158 9.03004 46.8686Z" fill="#2AA874"/>
<path d="M34.1505 23.0658C37.7809 25.6949 43.6669 25.6949 47.2974 23.0658C50.9277 20.4365 50.9277 16.1738 47.2974 13.5446C43.6669 10.9155 37.7809 10.9155 34.1505 13.5446C30.5202 16.1738 30.5202 20.4365 34.1505 23.0658Z" fill="#2AA874"/>
<path d="M20.8159 34.9672C23.8412 37.1581 28.7462 37.1581 31.7715 34.9672C34.7969 32.7761 34.7969 29.2239 31.7715 27.0328C28.7462 24.8419 23.8412 24.8419 20.8159 27.0328C17.7905 29.2239 17.7905 32.7761 20.8159 34.9672Z" fill="#2AA874"/>
<path d="M1.3614 33.3803C3.1766 34.6949 6.11961 34.6949 7.93482 33.3803C9.75001 32.0658 9.75001 29.9344 7.93482 28.6197C6.11961 27.3051 3.1766 27.3051 1.3614 28.6197C-0.453801 29.9344 -0.453799 32.0658 1.3614 33.3803Z" fill="#2AA874"/>
<path d="M20.8159 9.5775C23.8412 11.7685 28.7462 11.7685 31.7715 9.5775C34.7969 7.38652 34.7969 3.83423 31.7715 1.64324C28.7462 -0.547747 23.8412 -0.547749 20.8159 1.64324C17.7905 3.83423 17.7905 7.38652 20.8159 9.5775Z" fill="#2AA874"/>
<path d="M9.03004 21.4789C11.4503 23.2317 15.3743 23.2317 17.7947 21.4789C20.2148 19.7261 20.2148 16.8842 17.7947 15.1315C15.3743 13.3787 11.4503 13.3787 9.03004 15.1315C6.60977 16.8842 6.60979 19.7261 9.03004 21.4789Z" fill="#2AA874"/>
<path d="M20.8159 60.3568C23.8412 62.5477 28.7462 62.5477 31.7715 60.3568C34.7969 58.1658 34.7969 54.6135 31.7715 52.4225C28.7462 50.2316 23.8412 50.2316 20.8159 52.4225C17.7905 54.6135 17.7905 58.1658 20.8159 60.3568Z" fill="#2AA874"/>
<path d="M50.1309 35.7606C53.7614 38.3898 59.6475 38.3898 63.2778 35.7606C66.9083 33.1315 66.9083 28.8687 63.2778 26.2395C59.6475 23.6103 53.7614 23.6103 50.1309 26.2395C46.5006 28.8687 46.5006 33.1315 50.1309 35.7606Z" fill="#2AA874"/>
<path d="M34.1505 48.4553C37.7809 51.0846 43.6669 51.0846 47.2974 48.4553C50.9277 45.8262 50.9277 41.5635 47.2974 38.9342C43.6669 36.3051 37.7809 36.3051 34.1505 38.9342C30.5202 41.5635 30.5202 45.8262 34.1505 48.4553Z" fill="#2AA874"/>
</g>
<defs>
<clipPath id="clip0_418_5601">
<rect width="66" height="62" fill="white"/>
</clipPath>
</defs>
</svg>
